<svg xmlns="http://www.w3.org/2000/svg" viewBox="0 0 1086 1448" role="img" aria-label="MERGE Studio poster">
  <title>MERGE Studio poster</title>
  <rect width="1086" height="1448" fill="#000"/>
  <g fill="#f4f3ee">
    <path fill-rule="evenodd" clip-rule="evenodd" d="M924 555L920 557L913 564L911 568L911 570L910 571L910 579L911 580L911 583L914 587L914 588L919 593L923 595L925 595L926 596L937 596L938 595L940 595L944 593L949 588L952 582L952 579L953 578L953 573L952 572L952 569L951 568L951 566L950 564L943 557L939 555L936 555L935 554L928 554L927 555Z M667 699L667 702L666 703L666 705L665 706L665 710L664 711L664 716L663 717L663 725L662 726L662 729L663 730L663 742L664 743L664 747L665 748L666 755L668 758L668 761L674 773L676 775L677 778L682 784L682 785L694 797L695 797L699 801L700 801L705 805L719 812L721 812L722 813L724 813L728 815L737 816L738 817L763 817L764 816L769 816L770 815L777 814L783 811L785 811L795 806L797 804L800 803L808 796L809 796L819 786L819 785L825 778L829 770L831 768L831 766L834 761L834 759L835 758L836 753L838 750L854 750L855 751L855 772L856 773L856 780L855 781L855 798L856 799L856 803L855 804L855 813L856 814L989 814L989 791L988 790L880 790L879 789L879 737L880 736L989 736L989 713L988 712L880 712L879 711L879 668L880 667L890 667L891 666L956 666L957 667L983 667L984 666L987 666L988 667L989 666L989 643L855 643L855 667L856 668L856 673L855 674L855 725L854 726L741 726L741 749L742 750L810 750L811 751L810 756L808 758L806 763L799 771L799 772L794 777L793 777L789 781L788 781L783 785L775 789L773 789L769 791L766 791L765 792L761 792L760 793L742 793L741 792L737 792L736 791L733 791L732 790L727 789L721 786L719 784L716 783L713 780L712 780L700 768L700 767L697 764L695 759L692 755L692 753L689 747L688 740L687 739L687 718L688 717L688 713L689 712L689 710L690 709L691 704L696 694L701 688L701 687L710 678L711 678L714 675L715 675L720 671L726 668L728 668L729 667L731 667L735 665L738 665L739 664L746 664L747 663L755 663L756 664L763 664L764 665L767 665L768 666L773 667L783 672L785 674L789 676L803 690L803 691L806 694L808 699L810 701L810 703L812 706L812 708L813 709L814 714L839 714L839 712L838 711L838 707L837 706L837 704L836 703L835 698L831 691L831 689L829 687L825 679L818 671L818 670L809 661L808 661L800 654L797 653L795 651L783 645L781 645L777 643L774 643L770 641L766 641L765 640L756 640L755 639L745 639L744 640L737 640L736 641L732 641L731 642L728 642L727 643L725 643L724 644L719 645L716 647L714 647L708 650L706 652L703 653L696 659L695 659L683 671L683 672L680 675L680 676L674 684L670 692L670 694Z M341 643L310 643L300 663L300 665L276 712L276 714L272 722L269 726L269 728L244 778L242 777L241 775L241 773L240 772L240 770L239 769L239 767L237 764L237 762L236 761L236 759L235 758L235 756L234 755L233 750L231 747L230 742L228 739L228 737L227 736L227 734L226 733L226 731L225 730L225 728L224 727L224 725L223 724L222 719L220 716L220 714L219 713L219 711L218 710L217 705L215 702L215 700L214 699L214 697L213 696L212 691L210 688L210 685L208 682L208 680L207 679L207 677L206 676L206 674L205 673L205 671L204 670L204 668L203 667L202 662L200 659L200 657L199 656L199 654L198 653L197 648L196 647L170 647L169 652L167 655L167 657L163 665L163 667L160 673L160 675L158 678L158 680L155 685L155 687L153 690L153 692L150 697L150 699L148 702L148 704L145 709L145 711L143 714L143 716L141 719L141 721L139 724L139 726L136 731L135 736L132 741L132 743L130 746L130 748L128 751L128 753L122 765L122 767L120 770L120 772L116 779L116 781L114 784L114 786L112 789L112 791L110 794L110 796L108 799L108 801L104 809L103 814L130 814L132 810L133 805L135 802L135 800L138 795L138 793L141 787L141 785L143 782L143 780L146 775L146 773L149 767L149 765L151 762L151 760L154 755L154 753L156 750L156 748L158 745L158 743L161 738L161 736L163 733L163 731L165 728L165 726L168 721L168 719L170 716L170 714L172 711L172 709L175 704L175 702L178 697L178 695L182 688L184 688L185 689L185 691L188 697L188 699L189 700L189 702L190 703L191 708L193 711L193 713L196 719L196 721L197 722L198 727L200 730L201 735L203 738L203 740L204 741L204 743L205 744L206 749L208 752L208 754L209 755L209 757L210 758L211 763L213 766L214 771L216 774L216 776L217 777L217 779L218 780L218 782L219 783L219 785L220 786L220 788L221 789L221 791L222 792L222 794L223 795L223 797L224 798L224 800L225 801L225 803L226 804L226 806L227 807L227 809L229 813L254 813L256 811L267 789L267 787L282 758L282 756L292 737L292 735L294 731L296 729L298 725L298 723L313 693L315 692L316 693L316 814L341 814Z M355 643L355 814L356 815L360 815L361 814L369 814L370 815L384 815L385 814L387 815L489 815L490 814L495 814L496 815L498 815L499 814L499 802L500 801L500 797L499 796L499 791L498 790L380 790L379 789L379 737L380 736L499 736L499 713L380 713L379 712L379 668L380 667L499 667L499 643Z M513 643L513 667L613 667L614 668L617 668L621 670L628 676L631 682L631 685L632 686L632 694L631 695L630 700L628 702L628 703L622 709L618 711L616 711L615 712L610 712L609 713L513 713L523 723L523 724L545 746L546 746L554 754L555 754L571 769L572 769L578 775L579 775L587 783L588 783L593 788L594 788L600 794L601 794L607 800L608 800L614 806L615 806L621 812L622 812L624 814L642 814L643 815L644 814L658 814L659 815L664 815L666 814L667 815L667 814L665 812L664 812L661 809L660 809L657 806L656 806L653 803L652 803L648 799L647 799L644 796L643 796L639 792L638 792L634 788L633 788L629 784L628 784L624 780L623 780L618 775L617 775L612 770L611 770L606 765L605 765L599 759L598 759L593 754L592 754L586 748L585 748L578 741L577 741L574 738L575 736L616 736L617 735L621 735L622 734L627 733L630 731L632 731L634 729L638 727L648 717L649 714L651 712L651 710L654 705L654 702L655 701L655 697L656 696L656 683L655 682L655 678L654 677L654 674L649 664L647 662L647 661L640 654L639 654L636 651L633 650L631 648L629 648L626 646L624 646L620 644L616 644L615 643Z"/>
    <text x="543" y="568" text-anchor="middle" font-family="Inter, Helvetica Neue, Arial, sans-serif" font-size="25" font-weight="400" letter-spacing=".5">STUDIO</text>
    <text x="176" y="894" font-family="Inter, Helvetica Neue, Arial, sans-serif" font-size="25" font-weight="400" letter-spacing=".5">MERGE LAB</text>
    <text x="850" y="894" font-family="Inter, Helvetica Neue, Arial, sans-serif" font-size="25" font-weight="400" letter-spacing=".5">2026</text>
  </g>
</svg>
