<svg xmlns="http://www.w3.org/2000/svg" viewBox="0 0 1448 1086" role="img" aria-label="Merge project poster">
  <title>Merge project poster</title>
  <rect width="1448" height="1086" fill="#000"/>
  <g fill="#f4f4f0">
    <path fill-rule="evenodd" clip-rule="evenodd" d="M913 468L912 469L905 470L899 473L897 473L884 480L872 490L872 491L867 496L867 497L860 506L858 510L858 512L855 517L854 523L853 524L853 527L852 528L852 532L851 533L851 555L852 556L852 561L853 562L853 565L854 566L855 571L857 574L857 576L860 582L862 584L863 587L866 590L869 595L882 607L898 616L900 616L907 619L910 619L911 620L915 620L916 621L939 621L940 620L944 620L945 619L948 619L949 618L954 617L960 614L962 612L965 611L968 608L970 609L970 614L969 615L969 618L966 625L961 631L960 631L955 635L953 635L949 637L889 637L889 675L951 675L952 674L957 674L958 673L961 673L962 672L967 671L982 662L996 647L1005 629L1005 626L1006 625L1006 622L1007 621L1007 616L1008 615L1008 537L1007 536L1006 526L1005 525L1005 522L1002 516L1002 514L999 508L997 506L996 503L991 497L991 496L978 483L977 483L969 477L959 472L957 472L953 470L950 470L949 469L946 469L945 468L940 468L939 467L919 467L918 468Z M610 471L609 472L604 473L601 475L599 475L591 479L582 486L581 486L569 499L569 500L565 505L561 513L561 515L601 515L610 508L617 505L620 505L621 504L627 504L628 503L630 503L631 504L639 504L645 507L647 507L649 509L653 511L659 517L662 522L662 524L664 528L664 531L663 532L555 532L555 538L554 539L554 550L555 551L555 558L556 559L557 566L558 567L560 575L567 588L570 591L570 592L583 605L584 605L589 609L604 616L610 617L611 618L617 618L618 619L643 619L644 618L649 618L650 617L653 617L654 616L656 616L657 615L659 615L662 613L666 612L668 610L673 608L681 601L682 601L688 595L688 594L695 585L700 575L700 573L659 573L652 580L644 584L641 584L640 585L622 585L621 584L615 583L613 581L607 578L598 568L595 561L595 558L596 557L704 557L705 555L705 536L704 535L704 530L703 529L702 522L701 521L700 516L695 506L693 504L689 497L677 485L676 485L670 480L658 474L656 474L649 471L644 471L643 470L637 470L636 469L623 469L622 470Z M829 483L828 483L823 479L820 478L818 476L814 475L811 473L806 472L805 471L801 471L800 470L790 470L789 469L786 469L785 470L775 470L774 471L770 471L769 472L763 473L760 475L758 475L752 478L743 485L742 485L735 492L735 493L728 502L723 512L723 514L720 521L719 532L718 533L718 615L756 615L756 533L757 532L757 528L760 521L768 513L774 510L780 509L781 508L792 508L793 509L799 510L803 512L809 518L809 519L811 521L811 523L813 527L813 530L814 531L816 530L821 530L822 529L825 529L826 528L830 528L831 527L834 527L835 526L838 526L839 525L842 525L843 524L846 524L847 523L850 523L850 516L849 515L847 507L843 499L837 492L837 491Z M1078 471L1077 472L1069 474L1057 480L1050 486L1049 486L1039 496L1039 497L1033 505L1029 513L1029 515L1070 515L1078 508L1082 506L1087 505L1088 504L1094 504L1095 503L1106 504L1107 505L1110 505L1118 509L1126 517L1130 524L1131 531L1130 532L1023 532L1023 535L1022 536L1022 552L1023 553L1023 559L1024 560L1025 567L1026 568L1027 573L1033 585L1035 587L1037 591L1048 603L1049 603L1052 606L1058 609L1060 611L1072 616L1075 616L1079 618L1084 618L1085 619L1111 619L1112 618L1120 617L1121 616L1129 614L1139 609L1145 604L1146 604L1158 592L1167 576L1167 573L1126 573L1126 574L1121 579L1114 583L1108 584L1107 585L1090 585L1089 584L1083 583L1072 576L1066 569L1063 563L1063 558L1064 557L1172 557L1173 540L1172 539L1172 533L1171 532L1171 528L1170 527L1169 520L1167 517L1167 515L1165 512L1164 508L1162 506L1161 503L1158 500L1156 496L1146 486L1145 486L1136 479L1128 475L1126 475L1123 473L1117 472L1116 471L1112 471L1111 470L1104 470L1103 469L1093 469L1092 470L1084 470L1083 471Z M311 471L311 615L349 615L349 511L350 510L357 510L358 509L374 509L375 510L377 510L378 509L382 509L383 510L394 510L398 512L403 517L405 521L405 524L406 525L406 615L444 615L444 613L445 612L445 519L444 518L444 511L445 510L460 510L461 509L483 509L484 510L488 510L489 511L493 512L499 518L500 520L500 522L501 523L501 527L502 528L502 615L540 615L540 526L539 525L539 520L538 519L538 516L537 515L536 509L529 496L520 486L519 486L510 479L506 477L504 477L501 475L499 475L495 473L492 473L491 472L485 472L484 471L461 471L460 472L449 473L446 475L441 476L434 480L430 484L428 484L425 481L422 480L420 478L416 476L414 476L407 473L404 473L403 472L396 472L395 471Z M927 503L938 504L939 505L944 506L954 512L964 523L968 531L968 534L969 535L969 538L970 539L970 550L969 551L969 554L968 555L967 560L963 567L956 575L955 575L949 580L943 583L941 583L940 584L936 584L935 585L923 585L922 584L918 584L909 580L903 575L902 575L895 567L890 557L890 554L889 553L889 548L888 547L888 543L889 542L889 535L890 534L891 529L897 519L905 511L908 510L910 508L914 506L919 505L920 504L926 504Z"/>
    <text x="41" y="54" font-family="Inter, Helvetica Neue, Arial, sans-serif" font-size="18" fill="#9f9f9f">Project</text>
    <text x="41" y="76" font-family="Inter, Helvetica Neue, Arial, sans-serif" font-size="18">Merge</text>
    <text x="387" y="54" font-family="Inter, Helvetica Neue, Arial, sans-serif" font-size="18" fill="#9f9f9f">Industry</text>
    <text x="387" y="76" font-family="Inter, Helvetica Neue, Arial, sans-serif" font-size="18">Technology</text>
    <text x="1385" y="54" font-family="Inter, Helvetica Neue, Arial, sans-serif" font-size="18">05</text>
    <text x="41" y="1020" font-family="Inter, Helvetica Neue, Arial, sans-serif" font-size="18" fill="#9f9f9f">Author</text>
    <text x="41" y="1042" font-family="Inter, Helvetica Neue, Arial, sans-serif" font-size="18">Miqdam Sajid</text>
    <text x="387" y="1020" font-family="Inter, Helvetica Neue, Arial, sans-serif" font-size="18" fill="#9f9f9f">Behance</text>
    <text x="387" y="1042" font-family="Inter, Helvetica Neue, Arial, sans-serif" font-size="18">be.net/damstudioco</text>
  </g>
</svg>
