<svg xmlns="http://www.w3.org/2000/svg" viewBox="0 0 966 141" role="img" aria-label="MERGE logo">
  <title>MERGE logo</title>
  <path fill="#000" d="M0 139 84 0h51v95L190 0h48v139h-35V37l-59 102h-43V37L38 139H0Z"/>
  <path fill="#000" d="M267 0h152v31H301v26h115v28H301v24h119v30H267V0Z"/>
  <path fill="#000" fill-rule="evenodd" clip-rule="evenodd" d="M444 0h113c30 0 50 18 50 43 0 17-8 30-22 38 14 8 21 21 21 39v19h-34v-30c0-13-9-21-24-21h-69v51h-35V0Zm35 31v29h76c13 0 21-6 21-15s-8-14-21-14h-76Z"/>
  <path fill="#000" d="M682 0h100v31h-92c-25 0-34 18-34 39 0 22 13 39 35 39h44c17 0 29-7 35-19h-66V57h49c27 0 38 18 38 39 0 25-20 43-46 43h-56c-40 0-66-29-66-70C623 31 649 0 682 0Z"/>
  <path fill="#000" d="M811 0h153v31H846v26h114v28H846v24h118v30H811V0Z"/>
</svg>
