<svg width="235" height="115" viewBox="0 0 235 115" fill="none" xmlns="http://www.w3.org/2000/svg">
<path d="M124.199 36.5752V0.273438L128.264 0.269531C133.005 0.348895 137.526 2.29485 140.852 5.69043C144.177 9.08617 146.041 13.6586 146.041 18.4219C146.041 23.1852 144.177 27.7576 140.852 31.1533C137.63 34.4429 133.286 36.373 128.707 36.5625L128.263 36.5752H124.199ZM112.814 50.7314L87.6905 0.273438H105.423L123.69 36.9639L130.546 50.7314H112.814Z" fill="url(#paint0_linear_44_71)" stroke="url(#paint1_linear_44_71)" stroke-width="0.536842"/>
<path d="M11.5711 86.8185L18.0719 74.6854H23.1423L13.3464 93H9.79587L0 74.6854H5.07035L11.5711 86.8185Z" fill="white"/>
<path d="M53.0227 83.8427C53.0227 82.9487 53.1377 82.0887 53.3675 81.2628C53.5974 80.4369 53.9423 79.6664 54.4021 78.9512C54.8618 78.236 55.4366 77.5846 56.1262 76.9971C56.8159 76.4096 57.6205 75.9073 58.5401 75.49C59.4596 75.0728 60.4941 74.7493 61.6436 74.5194C62.793 74.2895 64.0574 74.1746 65.4368 74.1746C66.8161 74.1746 68.0805 74.2895 69.23 74.5194C70.3794 74.7493 71.4139 75.0728 72.3335 75.49C73.253 75.9073 74.0577 76.4096 74.7473 76.9971C75.437 77.5846 76.0117 78.236 76.4715 78.9512C76.9313 79.6664 77.2761 80.4369 77.506 81.2628C77.7359 82.0887 77.8508 82.9487 77.8508 83.8427C77.8508 85.188 77.5912 86.4481 77.0718 87.6231C76.5609 88.7896 75.7861 89.8113 74.7473 90.6883C73.7171 91.5653 72.4229 92.255 70.8647 92.7573C69.3151 93.2597 67.5058 93.5109 65.4368 93.5109C63.3678 93.5109 61.5542 93.2597 59.996 92.7573C58.4464 92.255 57.1522 91.5653 56.1135 90.6883C55.0832 89.8113 54.3084 88.7896 53.789 87.6231C53.2781 86.4481 53.0227 85.188 53.0227 83.8427ZM57.9781 83.8427C57.9781 84.5664 58.1101 85.2604 58.374 85.9245C58.638 86.5886 59.0637 87.1761 59.6512 87.687C60.2387 88.1979 61.005 88.6066 61.9501 88.9131C62.9037 89.2111 64.0659 89.3601 65.4368 89.3601C66.8076 89.3601 67.9656 89.2111 68.9107 88.9131C69.8643 88.6066 70.6348 88.1979 71.2223 87.687C71.8098 87.1761 72.2356 86.5886 72.4995 85.9245C72.7635 85.2604 72.8954 84.5664 72.8954 83.8427C72.8954 83.119 72.7635 82.4251 72.4995 81.7609C72.2356 81.0968 71.8098 80.5093 71.2223 79.9984C70.6348 79.4876 69.8643 79.0831 68.9107 78.7851C67.9656 78.4786 66.8076 78.3254 65.4368 78.3254C64.0659 78.3254 62.9037 78.4786 61.9501 78.7851C61.005 79.0831 60.2387 79.4876 59.6512 79.9984C59.0637 80.5093 58.638 81.0968 58.374 81.7609C58.1101 82.4251 57.9781 83.119 57.9781 83.8427Z" fill="white"/>
<path d="M131.308 83.8427C131.308 85.1369 131.095 86.3417 130.669 87.4571C130.252 88.564 129.643 89.5304 128.843 90.3563C128.051 91.1822 127.08 91.8293 125.931 92.2976C124.79 92.7659 123.496 93 122.048 93H110.158V74.6854H122.048C123.53 74.6854 124.845 74.9238 125.995 75.4006C127.144 75.8689 128.111 76.516 128.894 77.3419C129.686 78.1593 130.286 79.1257 130.695 80.2411C131.103 81.3565 131.308 82.557 131.308 83.8427ZM114.986 88.8492H122.048C122.815 88.8492 123.47 88.7172 124.015 88.4533C124.56 88.1893 125.003 87.8317 125.343 87.3805C125.693 86.9292 125.948 86.4013 126.11 85.7968C126.271 85.1837 126.352 84.5324 126.352 83.8427C126.352 83.153 126.271 82.5059 126.11 81.9014C125.948 81.2884 125.693 80.7562 125.343 80.305C125.003 79.8537 124.56 79.4961 124.015 79.2321C123.47 78.9682 122.815 78.8362 122.048 78.8362H114.986V88.8492Z" fill="white"/>
<path d="M181.508 81.7993V85.7329H168.443V88.8492H182.274V93H163.615V74.6854H182.07V78.8362H168.443V81.7993H181.508Z" fill="white"/>
<path d="M214.85 93V74.6854H226.689C227.889 74.6854 228.975 74.8046 229.946 75.043C230.925 75.2814 231.755 75.6561 232.436 76.1669C233.117 76.6778 233.641 77.3292 234.007 78.121C234.382 78.9129 234.569 79.8622 234.569 80.9691C234.569 81.7013 234.467 82.3442 234.262 82.8976C234.067 83.4511 233.798 83.9321 233.458 84.3408C233.117 84.7495 232.721 85.0943 232.27 85.3753C231.827 85.6478 231.363 85.8734 230.878 86.0522L234.863 93H229.448L225.91 86.8441H219.677V93H214.85ZM219.677 78.8362V83.102H226.689C227.685 83.102 228.422 82.9444 228.898 82.6294C229.375 82.3059 229.614 81.7524 229.614 80.9691C229.614 80.1858 229.375 79.6366 228.898 79.3215C228.422 78.998 227.685 78.8362 226.689 78.8362H219.677Z" fill="white"/>
<path d="M24.6656 112.351C24.6898 112.371 24.7216 112.392 24.7612 112.414C24.8007 112.433 24.8435 112.452 24.8897 112.47C24.9358 112.485 24.983 112.498 25.0313 112.509C25.0818 112.518 25.1301 112.522 25.1763 112.522C25.2751 112.522 25.3596 112.509 25.4299 112.483C25.5024 112.454 25.5639 112.418 25.6144 112.374C25.6671 112.328 25.7099 112.276 25.7429 112.219C25.7758 112.16 25.8022 112.098 25.8219 112.035L23.8355 108.157H24.5899L26.1909 111.366L27.4032 108.157H28.1345L26.6126 111.778C26.5072 112.019 26.4083 112.226 26.3161 112.397C26.226 112.566 26.1272 112.705 26.0196 112.812C25.9142 112.92 25.7934 112.998 25.6572 113.046C25.5233 113.097 25.3607 113.122 25.1697 113.122C25.0708 113.122 24.9742 113.109 24.8798 113.082C24.7853 113.056 24.7129 113.022 24.6623 112.98L24.6656 112.351Z" fill="white"/>
<path d="M34.2085 111.004C34.1449 111.037 34.0691 111.067 33.9812 111.096C33.8956 111.124 33.8001 111.15 33.6946 111.172C33.5892 111.191 33.4772 111.208 33.3586 111.221C33.24 111.234 33.1181 111.241 32.993 111.241C32.7623 111.241 32.5438 111.219 32.3374 111.175C32.1309 111.129 31.9487 111.05 31.7905 110.938C31.6346 110.824 31.5105 110.672 31.4183 110.483C31.326 110.292 31.2799 110.052 31.2799 109.762V108.157H31.9289V109.693C31.9289 109.892 31.9552 110.056 32.008 110.183C32.0629 110.311 32.1408 110.411 32.2419 110.483C32.3451 110.556 32.4703 110.606 32.6174 110.635C32.7645 110.661 32.9326 110.674 33.1214 110.674C33.2268 110.674 33.3334 110.668 33.441 110.654C33.5508 110.641 33.654 110.624 33.7506 110.602C33.8495 110.58 33.9384 110.555 34.0175 110.526C34.0987 110.497 34.1624 110.468 34.2085 110.437V108.157H34.8575V113H34.2085V111.004Z" fill="white"/>
<path d="M38.642 108.157H42.1768V108.724H39.2877V110.22H41.9528V110.786H39.2877V112.433H42.2229V113H38.642V108.157Z" fill="white"/>
<path d="M45.5198 108.157H49.4598V108.724H47.8126V113H47.1637V108.724H45.5198V108.157Z" fill="white"/>
<path d="M57.4932 108.157H58.1389V112.074H58.1521L60.6162 108.157H61.364V113H60.7151V109.06H60.7019L58.2411 113H57.4932V108.157Z" fill="white"/>
<path d="M72.3755 111.004L71.6376 108.849L70.8206 111.004H72.3755ZM69.4304 113L71.2456 108.082H72.0329L73.7888 113H73.0706L72.56 111.518H70.6559L70.1156 113H69.4304Z" fill="white"/>
<path d="M77.1747 108.157H77.8203V110.154H80.3965V108.157H81.0455V113H80.3965V110.72H77.8203V113H77.1747V108.157Z" fill="white"/>
<path d="M87.3962 111.004L86.6583 108.849L85.8413 111.004H87.3962ZM84.4511 113L86.2662 108.082H87.0536L88.8094 113H88.0913L87.5807 111.518H85.6766L85.1363 113H84.4511Z" fill="white"/>
<path d="M95.1767 108.724H93.4471C93.4471 109.1 93.4428 109.469 93.434 109.831C93.4252 110.193 93.4065 110.537 93.378 110.862C93.3494 111.185 93.3066 111.482 93.2495 111.755C93.1924 112.027 93.1144 112.263 93.0156 112.463C92.9168 112.661 92.7938 112.816 92.6466 112.928C92.5017 113.037 92.3249 113.092 92.1162 113.092C92.0526 113.092 91.9988 113.087 91.9548 113.076C91.9131 113.065 91.867 113.053 91.8165 113.04V112.44C91.8406 112.451 91.8703 112.461 91.9054 112.47C91.9427 112.476 91.9955 112.48 92.0635 112.48C92.1646 112.48 92.2513 112.443 92.3238 112.371C92.3985 112.296 92.4621 112.193 92.5149 112.061C92.5676 111.929 92.6104 111.773 92.6433 111.593C92.6785 111.411 92.7059 111.213 92.7257 111C92.7477 110.787 92.763 110.562 92.7718 110.325C92.7828 110.088 92.7905 109.847 92.7949 109.604C92.8015 109.358 92.8048 109.113 92.8048 108.869C92.807 108.623 92.8102 108.386 92.8146 108.157H95.8256V113H95.1767V108.724Z" fill="white"/>
<path d="M99.6101 108.157H100.256V112.074H100.269L102.733 108.157H103.481V113H102.832V109.06H102.819L100.358 113H99.6101V108.157Z" fill="white"/>
<path d="M108.504 110.187H109.377C109.515 110.187 109.635 110.166 109.736 110.124C109.837 110.08 109.921 110.023 109.986 109.953C110.052 109.88 110.101 109.8 110.131 109.712C110.164 109.622 110.181 109.531 110.181 109.439C110.181 109.287 110.151 109.159 110.092 109.053C110.033 108.948 109.951 108.862 109.848 108.796C109.745 108.728 109.622 108.679 109.479 108.648C109.339 108.617 109.185 108.602 109.018 108.602C108.809 108.602 108.625 108.632 108.464 108.691C108.306 108.748 108.174 108.826 108.066 108.925C107.96 109.022 107.881 109.135 107.829 109.264C107.778 109.394 107.755 109.53 107.76 109.673H107.15C107.15 109.466 107.174 109.282 107.223 109.119C107.273 108.957 107.342 108.815 107.43 108.694C107.518 108.574 107.621 108.471 107.74 108.388C107.858 108.305 107.987 108.236 108.125 108.184C108.266 108.131 108.413 108.094 108.567 108.072C108.723 108.048 108.88 108.036 109.038 108.036C109.297 108.036 109.533 108.064 109.746 108.121C109.961 108.176 110.146 108.26 110.299 108.372C110.453 108.481 110.573 108.62 110.659 108.787C110.744 108.951 110.787 109.143 110.787 109.363C110.787 109.613 110.738 109.825 110.639 109.999C110.542 110.17 110.374 110.3 110.135 110.388V110.404C110.26 110.439 110.374 110.491 110.477 110.559C110.583 110.625 110.673 110.708 110.747 110.809C110.824 110.908 110.884 111.026 110.925 111.162C110.969 111.298 110.991 111.454 110.991 111.63C110.991 111.876 110.937 112.092 110.83 112.279C110.722 112.465 110.578 112.621 110.398 112.746C110.218 112.872 110.008 112.965 109.769 113.026C109.532 113.09 109.284 113.122 109.025 113.122C108.748 113.122 108.49 113.096 108.25 113.043C108.011 112.992 107.8 112.908 107.618 112.789C107.438 112.671 107.293 112.515 107.183 112.321C107.073 112.126 107.011 111.887 106.995 111.603H107.631C107.642 111.742 107.674 111.869 107.727 111.985C107.781 112.102 107.862 112.203 107.967 112.288C108.075 112.372 108.21 112.438 108.372 112.486C108.537 112.532 108.735 112.555 108.965 112.555C109.174 112.555 109.363 112.538 109.532 112.503C109.703 112.467 109.848 112.411 109.967 112.335C110.087 112.258 110.18 112.159 110.243 112.038C110.309 111.915 110.342 111.768 110.342 111.597C110.342 111.469 110.321 111.353 110.28 111.247C110.24 111.142 110.179 111.051 110.095 110.974C110.012 110.897 109.907 110.838 109.782 110.796C109.657 110.752 109.509 110.73 109.337 110.73H108.504V110.187Z" fill="white"/>
<path d="M118.827 114.038V112.433H119.265C119.311 112.328 119.354 112.221 119.394 112.114C119.433 112.004 119.469 111.881 119.502 111.745C119.537 111.607 119.569 111.448 119.598 111.271C119.629 111.093 119.657 110.882 119.684 110.638C119.714 110.381 119.738 110.128 119.756 109.88C119.774 109.63 119.787 109.396 119.796 109.179C119.807 108.961 119.813 108.765 119.815 108.589C119.82 108.413 119.823 108.269 119.825 108.157H122.869V112.433H123.416V114.038H122.81V113H119.433V114.038H118.827ZM120.431 108.724C120.431 109.038 120.418 109.351 120.392 109.663C120.368 109.975 120.338 110.289 120.303 110.605C120.279 110.855 120.253 111.068 120.227 111.244C120.203 111.418 120.177 111.572 120.148 111.709C120.122 111.843 120.091 111.967 120.056 112.081C120.023 112.193 119.984 112.31 119.94 112.433H122.204V108.724H120.431Z" fill="white"/>
<path d="M131.203 110.579C131.203 110.787 131.182 110.996 131.14 111.205C131.099 111.411 131.035 111.609 130.949 111.798C130.864 111.984 130.756 112.159 130.627 112.321C130.499 112.482 130.348 112.622 130.172 112.743C129.996 112.862 129.797 112.954 129.576 113.02C129.356 113.088 129.112 113.122 128.844 113.122C128.576 113.122 128.331 113.088 128.11 113.02C127.888 112.954 127.689 112.862 127.513 112.743C127.34 112.622 127.188 112.482 127.059 112.321C126.929 112.159 126.822 111.984 126.736 111.798C126.65 111.609 126.587 111.411 126.545 111.205C126.503 110.996 126.482 110.787 126.482 110.579C126.482 110.203 126.535 109.859 126.64 109.548C126.748 109.236 126.903 108.968 127.105 108.744C127.307 108.52 127.554 108.346 127.846 108.223C128.138 108.098 128.471 108.036 128.844 108.036C129.215 108.036 129.547 108.098 129.839 108.223C130.133 108.346 130.381 108.52 130.58 108.744C130.782 108.968 130.936 109.236 131.042 109.548C131.149 109.859 131.203 110.203 131.203 110.579ZM130.557 110.579C130.557 110.291 130.519 110.026 130.442 109.785C130.365 109.541 130.253 109.332 130.106 109.159C129.961 108.983 129.782 108.847 129.569 108.75C129.356 108.652 129.114 108.602 128.844 108.602C128.572 108.602 128.329 108.652 128.116 108.75C127.903 108.847 127.723 108.983 127.576 109.159C127.431 109.332 127.32 109.541 127.243 109.785C127.166 110.026 127.128 110.291 127.128 110.579C127.128 110.873 127.163 111.142 127.233 111.386C127.304 111.627 127.41 111.835 127.553 112.008C127.696 112.182 127.874 112.317 128.087 112.414C128.302 112.508 128.554 112.555 128.844 112.555C129.132 112.555 129.383 112.508 129.599 112.414C129.814 112.317 129.992 112.182 130.132 112.008C130.275 111.835 130.382 111.627 130.452 111.386C130.522 111.142 130.557 110.873 130.557 110.579Z" fill="white"/>
<path d="M135.162 110.572C135.162 110.875 135.201 111.15 135.277 111.396C135.354 111.639 135.462 111.847 135.6 112.018C135.741 112.19 135.909 112.322 136.104 112.417C136.302 112.509 136.519 112.555 136.757 112.555C136.963 112.555 137.147 112.518 137.31 112.443C137.475 112.369 137.616 112.271 137.735 112.15C137.854 112.027 137.949 111.889 138.022 111.735C138.094 111.581 138.142 111.425 138.166 111.267H138.792C138.779 111.408 138.748 111.552 138.7 111.699C138.654 111.844 138.59 111.985 138.509 112.124C138.43 112.26 138.334 112.389 138.222 112.512C138.11 112.633 137.981 112.739 137.834 112.829C137.689 112.919 137.526 112.99 137.346 113.043C137.166 113.096 136.97 113.122 136.757 113.122C136.609 113.122 136.451 113.107 136.282 113.076C136.115 113.045 135.948 112.993 135.781 112.921C135.617 112.848 135.457 112.752 135.304 112.631C135.152 112.508 135.018 112.354 134.902 112.17C134.785 111.985 134.692 111.768 134.622 111.518C134.552 111.265 134.516 110.972 134.516 110.638C134.516 110.311 134.547 110.019 134.609 109.762C134.672 109.505 134.758 109.281 134.866 109.09C134.975 108.896 135.103 108.733 135.248 108.599C135.395 108.465 135.552 108.356 135.719 108.273C135.886 108.189 136.059 108.129 136.239 108.092C136.419 108.054 136.598 108.036 136.776 108.036C136.996 108.036 137.196 108.059 137.376 108.105C137.558 108.149 137.721 108.21 137.863 108.289C138.008 108.366 138.135 108.456 138.242 108.559C138.35 108.663 138.44 108.772 138.512 108.889C138.587 109.003 138.644 109.12 138.684 109.241C138.725 109.362 138.751 109.48 138.759 109.594H138.127C138.085 109.438 138.024 109.298 137.942 109.175C137.861 109.052 137.762 108.949 137.646 108.866C137.532 108.78 137.402 108.715 137.257 108.671C137.115 108.625 136.961 108.602 136.796 108.602C136.548 108.602 136.323 108.648 136.121 108.74C135.921 108.833 135.75 108.964 135.607 109.136C135.464 109.307 135.354 109.515 135.277 109.758C135.201 110 135.162 110.271 135.162 110.572Z" fill="white"/>
<path d="M142.007 108.157H145.947V108.724H144.3V113H143.651V108.724H142.007V108.157Z" fill="white"/>
<path d="M151.883 111.004L151.145 108.849L150.328 111.004H151.883ZM148.938 113L150.753 108.082H151.54L153.296 113H152.578L152.067 111.518H150.163L149.623 113H148.938Z" fill="white"/>
<path d="M156.682 108.157H158.415C158.606 108.157 158.772 108.163 158.915 108.174C159.058 108.183 159.192 108.204 159.317 108.236C159.436 108.269 159.547 108.318 159.65 108.381C159.755 108.443 159.848 108.522 159.927 108.619C160.006 108.713 160.067 108.824 160.111 108.951C160.157 109.077 160.18 109.218 160.18 109.376C160.18 109.46 160.169 109.55 160.147 109.646C160.125 109.743 160.089 109.839 160.039 109.933C159.988 110.025 159.921 110.112 159.838 110.193C159.756 110.272 159.655 110.337 159.535 110.388C159.633 110.421 159.734 110.467 159.838 110.526C159.941 110.585 160.034 110.662 160.118 110.757C160.203 110.849 160.274 110.962 160.329 111.096C160.383 111.228 160.411 111.386 160.411 111.57C160.411 111.676 160.398 111.786 160.371 111.9C160.347 112.012 160.307 112.12 160.249 112.226C160.195 112.331 160.123 112.431 160.035 112.526C159.947 112.62 159.841 112.702 159.716 112.773C159.591 112.843 159.446 112.899 159.281 112.941C159.118 112.98 158.933 113 158.724 113H156.682V108.157ZM158.629 112.433C158.839 112.433 159.016 112.414 159.159 112.374C159.304 112.332 159.42 112.275 159.508 112.203C159.598 112.128 159.663 112.039 159.703 111.936C159.742 111.833 159.762 111.717 159.762 111.59C159.762 111.463 159.742 111.347 159.703 111.244C159.663 111.141 159.598 111.053 159.508 110.981C159.42 110.906 159.304 110.849 159.159 110.809C159.016 110.768 158.839 110.747 158.629 110.747H157.327V112.433H158.629ZM158.536 110.22C158.749 110.22 158.921 110.2 159.05 110.16C159.182 110.119 159.283 110.064 159.353 109.996C159.426 109.925 159.474 109.843 159.498 109.749C159.523 109.654 159.535 109.553 159.535 109.445C159.535 109.331 159.517 109.23 159.482 109.142C159.449 109.052 159.393 108.977 159.314 108.915C159.235 108.854 159.132 108.806 159.004 108.773C158.877 108.74 158.721 108.724 158.536 108.724H157.327V110.22H158.536Z" fill="white"/>
<path d="M163.965 108.157H164.61V110.516L166.972 108.157H167.875L165.859 110.111L167.931 113H167.101L165.394 110.559L164.61 111.313V113H163.965V108.157Z" fill="white"/>
<path d="M171.248 108.157H171.893V112.074H171.907L174.371 108.157H175.119V113H174.47V109.06H174.456L171.996 113H171.248V108.157Z" fill="white"/>
<path d="M183.567 108.157H185.3C185.491 108.157 185.658 108.163 185.801 108.174C185.943 108.183 186.077 108.204 186.202 108.236C186.321 108.269 186.432 108.318 186.535 108.381C186.641 108.443 186.733 108.522 186.812 108.619C186.891 108.713 186.953 108.824 186.996 108.951C187.043 109.077 187.066 109.218 187.066 109.376C187.066 109.46 187.055 109.55 187.033 109.646C187.011 109.743 186.974 109.839 186.924 109.933C186.873 110.025 186.806 110.112 186.723 110.193C186.642 110.272 186.541 110.337 186.42 110.388C186.519 110.421 186.62 110.467 186.723 110.526C186.826 110.585 186.92 110.662 187.003 110.757C187.089 110.849 187.159 110.962 187.214 111.096C187.269 111.228 187.296 111.386 187.296 111.57C187.296 111.676 187.283 111.786 187.257 111.9C187.233 112.012 187.192 112.12 187.135 112.226C187.08 112.331 187.009 112.431 186.921 112.526C186.833 112.62 186.726 112.702 186.601 112.773C186.476 112.843 186.331 112.899 186.166 112.941C186.004 112.98 185.818 113 185.61 113H183.567V108.157ZM185.514 112.433C185.725 112.433 185.902 112.414 186.044 112.374C186.189 112.332 186.306 112.275 186.394 112.203C186.484 112.128 186.548 112.039 186.588 111.936C186.627 111.833 186.647 111.717 186.647 111.59C186.647 111.463 186.627 111.347 186.588 111.244C186.548 111.141 186.484 111.053 186.394 110.981C186.306 110.906 186.189 110.849 186.044 110.809C185.902 110.768 185.725 110.747 185.514 110.747H184.213V112.433H185.514ZM185.422 110.22C185.635 110.22 185.806 110.2 185.936 110.16C186.067 110.119 186.168 110.064 186.239 109.996C186.311 109.925 186.36 109.843 186.384 109.749C186.408 109.654 186.42 109.553 186.42 109.445C186.42 109.331 186.402 109.23 186.367 109.142C186.334 109.052 186.278 108.977 186.199 108.915C186.12 108.854 186.017 108.806 185.89 108.773C185.762 108.74 185.606 108.724 185.422 108.724H184.213V110.22H185.422Z" fill="white"/>
<path d="M195.334 110.579C195.334 110.787 195.313 110.996 195.271 111.205C195.229 111.411 195.166 111.609 195.08 111.798C194.994 111.984 194.887 112.159 194.757 112.321C194.63 112.482 194.478 112.622 194.303 112.743C194.127 112.862 193.928 112.954 193.706 113.02C193.487 113.088 193.243 113.122 192.975 113.122C192.707 113.122 192.462 113.088 192.24 113.02C192.018 112.954 191.82 112.862 191.644 112.743C191.471 112.622 191.319 112.482 191.189 112.321C191.06 112.159 190.952 111.984 190.867 111.798C190.781 111.609 190.717 111.411 190.675 111.205C190.634 110.996 190.613 110.787 190.613 110.579C190.613 110.203 190.666 109.859 190.771 109.548C190.879 109.236 191.033 108.968 191.236 108.744C191.438 108.52 191.685 108.346 191.977 108.223C192.269 108.098 192.602 108.036 192.975 108.036C193.346 108.036 193.678 108.098 193.97 108.223C194.264 108.346 194.511 108.52 194.711 108.744C194.913 108.968 195.067 109.236 195.172 109.548C195.28 109.859 195.334 110.203 195.334 110.579ZM194.688 110.579C194.688 110.291 194.65 110.026 194.573 109.785C194.496 109.541 194.384 109.332 194.237 109.159C194.092 108.983 193.913 108.847 193.7 108.75C193.487 108.652 193.245 108.602 192.975 108.602C192.703 108.602 192.46 108.652 192.247 108.75C192.034 108.847 191.854 108.983 191.707 109.159C191.562 109.332 191.451 109.541 191.374 109.785C191.297 110.026 191.259 110.291 191.259 110.579C191.259 110.873 191.294 111.142 191.364 111.386C191.434 111.627 191.541 111.835 191.684 112.008C191.826 112.182 192.004 112.317 192.217 112.414C192.432 112.508 192.685 112.555 192.975 112.555C193.263 112.555 193.514 112.508 193.729 112.414C193.945 112.317 194.122 112.182 194.263 112.008C194.406 111.835 194.512 111.627 194.583 111.386C194.653 111.142 194.688 110.873 194.688 110.579Z" fill="white"/>
<path d="M198.505 114.038V112.433H198.943C198.99 112.328 199.032 112.221 199.072 112.114C199.112 112.004 199.148 111.881 199.181 111.745C199.216 111.607 199.248 111.448 199.276 111.271C199.307 111.093 199.336 110.882 199.362 110.638C199.393 110.381 199.417 110.128 199.434 109.88C199.452 109.63 199.465 109.396 199.474 109.179C199.485 108.961 199.491 108.765 199.494 108.589C199.498 108.413 199.501 108.269 199.504 108.157H202.547V112.433H203.094V114.038H202.488V113H199.112V114.038H198.505ZM200.11 108.724C200.11 109.038 200.097 109.351 200.07 109.663C200.046 109.975 200.016 110.289 199.981 110.605C199.957 110.855 199.932 111.068 199.905 111.244C199.881 111.418 199.855 111.572 199.826 111.709C199.8 111.843 199.769 111.967 199.734 112.081C199.701 112.193 199.663 112.31 199.619 112.433H201.882V108.724H200.11Z" fill="white"/>
<path d="M206.398 108.157H207.047V110.154H208.335C208.625 110.154 208.876 110.187 209.089 110.253C209.302 110.318 209.478 110.413 209.616 110.536C209.755 110.659 209.858 110.808 209.926 110.984C209.994 111.16 210.028 111.357 210.028 111.577C210.028 111.792 209.994 111.988 209.926 112.163C209.858 112.337 209.758 112.486 209.626 112.611C209.497 112.734 209.336 112.83 209.145 112.898C208.956 112.966 208.74 113 208.496 113H206.398V108.157ZM208.411 112.433C208.542 112.433 208.664 112.419 208.776 112.391C208.891 112.362 208.989 112.315 209.073 112.249C209.156 112.181 209.221 112.093 209.267 111.985C209.315 111.876 209.34 111.739 209.34 111.577C209.34 111.417 209.314 111.281 209.264 111.172C209.216 111.062 209.145 110.974 209.053 110.908C208.961 110.84 208.849 110.792 208.717 110.763C208.585 110.735 208.436 110.72 208.269 110.72H207.047V112.433H208.411ZM210.684 108.157H211.329V113H210.684V108.157Z" fill="white"/>
<defs>
<linearGradient id="paint0_linear_44_71" x1="116.315" y1="44.0552" x2="103.192" y2="-14.9975" gradientUnits="userSpaceOnUse">
<stop stop-color="#2E008A"/>
<stop offset="1" stop-color="#A1BDFF"/>
</linearGradient>
<linearGradient id="paint1_linear_44_71" x1="134.902" y1="63.75" x2="103.362" y2="-2.01316" gradientUnits="userSpaceOnUse">
<stop offset="0.269273" stop-color="#D8E1FF"/>
<stop offset="0.551193" stop-color="#05010D" stop-opacity="0"/>
</linearGradient>
</defs>
</svg>
